HIERARCHY
ROOT Hips
{
	OFFSET 0.000000 0.000000 0.000000
	CHANNELS 6 Xposition Yposition Zposition Xrotation Yrotation Zrotation
	JOINT LeftUpLeg_virtual
	{
		OFFSET 0.000000 0.000000 0.000000
		CHANNELS 3 Xrotation Yrotation Zrotation
		JOINT LeftUpLeg
		{
			OFFSET 11.394100 -6.187798 -0.413800
			CHANNELS 3 Xrotation Yrotation Zrotation
			JOINT LeftLeg
			{
				OFFSET 0.430247 -32.302673 3.732800
				CHANNELS 3 Xrotation Yrotation Zrotation
				JOINT LeftFoot
				{
					OFFSET -0.430247 -48.264931 -6.423300
					CHANNELS 3 Xrotation Yrotation Zrotation
					JOINT LeftToeBase
					{
						OFFSET 4.230900 -16.068199 23.438400
						CHANNELS 3 Xrotation Yrotation Zrotation
						JOINT LeftToe_End
						{
							OFFSET 4.510700 0.695400 19.974600
							CHANNELS 3 Xrotation Yrotation Zrotation
							End Site
							{
								OFFSET 0 0 0
							}
						}
					}
				}
			}
		}
	}
	JOINT RightUpLeg_virtual
	{
		OFFSET 0.000000 0.000000 0.000000
		CHANNELS 3 Xrotation Yrotation Zrotation
		JOINT RightUpLeg
		{
			OFFSET -11.333700 -6.187798 -0.413800
			CHANNELS 3 Xrotation Yrotation Zrotation
			JOINT RightLeg
			{
				OFFSET -0.430392 -32.302628 3.733000
				CHANNELS 3 Xrotation Yrotation Zrotation
				JOINT RightFoot
				{
					OFFSET 0.430392 -48.264973 -6.423500
					CHANNELS 3 Xrotation Yrotation Zrotation
					JOINT RightToeBase
					{
						OFFSET -4.230900 -16.068199 23.438400
						CHANNELS 3 Xrotation Yrotation Zrotation
						JOINT RightToe_End
						{
							OFFSET -4.510700 0.695400 19.974600
							CHANNELS 3 Xrotation Yrotation Zrotation
							End Site
							{
								OFFSET 0 0 0
							}
						}
					}
				}
			}
		}
	}
	JOINT Spine_virtual
	{
		OFFSET 0.000000 0.000000 0.000000
		CHANNELS 3 Xrotation Yrotation Zrotation
		JOINT Spine
		{
			OFFSET -0.002400 12.777504 0.315300
			CHANNELS 3 Xrotation Yrotation Zrotation
			JOINT Spine1
			{
				OFFSET -0.002067 5.816869 0.032633
				CHANNELS 3 Xrotation Yrotation Zrotation
				JOINT Spine1_split
				{
					OFFSET -0.002067 5.816869 0.032633
					CHANNELS 3 Xrotation Yrotation Zrotation
					JOINT Spine2
					{
						OFFSET -0.002067 5.816869 0.032633
						CHANNELS 3 Xrotation Yrotation Zrotation
						JOINT Neck_virtual
						{
							OFFSET 0.000000 0.000000 0.000000
							CHANNELS 3 Xrotation Yrotation Zrotation
							JOINT Neck
							{
								OFFSET -0.003700 21.199493 -0.826900
								CHANNELS 3 Xrotation Yrotation Zrotation
								JOINT Head
								{
									OFFSET 0.000000 20.442200 4.834800
									CHANNELS 3 Xrotation Yrotation Zrotation
									JOINT HeadTop_End
									{
										OFFSET 0.000000 34.668396 4.968400
										CHANNELS 3 Xrotation Yrotation Zrotation
										End Site
										{
											OFFSET 0 0 0
										}
									}
								}
							}
						}
						JOINT LeftShoulder_virtual
						{
							OFFSET 0.000000 0.000000 0.000000
							CHANNELS 3 Xrotation Yrotation Zrotation
							JOINT LeftShoulder
							{
								OFFSET 3.288150 8.794197 -1.372250
								CHANNELS 3 Xrotation Yrotation Zrotation
								JOINT LeftShoulder_split
								{
									OFFSET 3.288150 8.794197 -1.372250
									CHANNELS 3 Xrotation Yrotation Zrotation
									JOINT LeftArm
									{
										OFFSET 11.953299 -2.279007 -0.146200
										CHANNELS 3 Xrotation Yrotation Zrotation
										JOINT LeftForeArm
										{
											OFFSET 18.448900 0.000000 0.000000
											CHANNELS 3 Xrotation Yrotation Zrotation
											JOINT LeftHand
											{
												OFFSET 29.527798 0.000000 0.000000
												CHANNELS 3 Xrotation Yrotation Zrotation
												End Site
												{
													OFFSET 0 0 0
												}
											}
										}
									}
								}
							}
						}
						JOINT RightShoulder_virtual
						{
							OFFSET 0.000000 0.000000 0.000000
							CHANNELS 3 Xrotation Yrotation Zrotation
							JOINT RightShoulder
							{
								OFFSET -3.249400 8.794197 -1.372250
								CHANNELS 3 Xrotation Yrotation Zrotation
								JOINT RightShoulder_split
								{
									OFFSET -3.249400 8.794197 -1.372250
									CHANNELS 3 Xrotation Yrotation Zrotation
									JOINT RightArm
									{
										OFFSET -11.953299 -2.279007 -0.146200
										CHANNELS 3 Xrotation Yrotation Zrotation
										JOINT RightForeArm
										{
											OFFSET -18.448900 0.000000 0.000000
											CHANNELS 3 Xrotation Yrotation Zrotation
											JOINT RightHand
											{
												OFFSET -29.527802 0.000000 0.000000
												CHANNELS 3 Xrotation Yrotation Zrotation
												End Site
												{
													OFFSET 0 0 0
												}
											}
										}
									}
								}
							}
						}
					}
				}
			}
		}
	}
}
MOTION
Frames: 4
Frame Time: 0.03333333
-4.389369 85.177292 -3.761612 0.000000 0.000000 0.000000 26.249100 -44.128111 9.494298 -92.156286 -0.986806 13.542603 55.004961 -0.159958 -2.483603 22.103783 -3.028931 -14.666424 -7.161868 1.393672 6.144474 0.000000 0.000000 0.000000 24.305489 -44.297656 8.358659 -39.559892 -14.376624 -19.906159 48.411056 -16.278094 6.510602 -16.313166 -11.007391 26.018231 -3.615136 0.171706 6.820957 0.000000 0.000000 0.000000 28.674558 -45.512470 10.585057 -0.099407 6.834105 -1.340688 -1.459747 2.391437 0.361010 0.842428 -0.612701 0.394911 0.000000 0.000000 0.000000 0.608471 0.082170 1.141517 10.939873 6.445291 -7.843311 -3.065112 20.835439 11.301292 0.000000 0.000000 0.000000 -2.349381 1.078062 0.803617 3.308556 2.590031 -9.466418 0.565728 4.316396 1.511014 -52.354892 -29.329710 -46.353082 1.103119 -70.119665 2.473349 0.000000 0.000000 0.000000 -2.019801 0.108022 0.837212 -12.747687 -1.796065 -2.821730 -8.788361 -1.204988 -1.785560 -106.691523 37.817576 126.294569 -4.707788 24.475979 2.332656 0.000000 0.000000 0.000000 
-3.752542 85.935562 -7.739059 0.000000 0.000000 0.000000 26.166573 -42.600658 8.435643 -89.184116 -0.943287 12.345775 57.985806 -0.488636 -2.007886 18.850870 -3.112433 -14.170803 -8.426717 0.368722 8.298320 0.000000 0.000000 0.000000 24.573489 -44.099362 7.964545 -39.924177 -16.471302 -18.271842 46.865131 -15.327428 6.012130 -17.420071 -10.139105 26.207950 -1.341291 1.290720 4.759313 0.000000 0.000000 0.000000 30.054342 -45.554814 10.931550 -0.379868 7.065590 -1.060807 -1.458375 2.559501 0.311683 1.701670 -0.431322 0.526143 0.000000 0.000000 0.000000 0.661203 0.203563 1.124301 10.962413 6.153794 -7.605006 -2.871858 20.770499 11.178845 0.000000 0.000000 0.000000 -2.146412 1.164529 0.754403 3.191724 2.185865 -9.722440 1.098454 4.464388 1.182442 -51.904612 -29.578182 -46.141743 1.159657 -69.659078 2.432416 0.000000 0.000000 0.000000 -1.799591 0.337875 0.914703 -12.759823 -1.798418 -2.538693 -9.048413 -0.884832 -1.775034 -106.938523 38.303216 126.549103 -4.422390 23.176700 2.269912 0.000000 0.000000 0.000000 
-2.862037 86.681465 -13.270012 0.000000 0.000000 0.000000 26.321647 -42.884306 7.729329 -85.068606 -0.809516 10.250721 61.396700 -1.925746 -0.566828 15.121996 -4.772508 -13.807975 -10.337976 -0.490442 9.136990 0.000000 0.000000 0.000000 25.305441 -45.779100 8.119269 -42.463218 -19.061257 -16.990490 46.048907 -13.635440 5.705066 -16.130354 -7.976734 27.395371 -3.625268 2.167594 0.804555 0.000000 0.000000 0.000000 31.753870 -46.704113 11.564527 -0.453841 7.689930 -0.563826 -1.415316 3.040448 0.322925 2.071986 -0.384585 0.667468 0.000000 0.000000 0.000000 0.754395 0.620269 1.129079 10.828864 5.663522 -7.096138 -2.512563 19.991877 11.256458 0.000000 0.000000 0.000000 -1.986534 1.558857 0.763918 3.007711 1.507844 -10.042954 1.363706 4.327743 1.032906 -51.642538 -30.198664 -45.942984 0.842266 -69.903325 2.084118 0.000000 0.000000 0.000000 -1.488018 0.868595 1.027912 -12.908248 -1.981967 -1.858743 -9.212306 -0.761754 -2.036858 -107.131818 38.701723 126.513982 -3.984228 22.035980 2.025689 0.000000 0.000000 0.000000 
-2.191880 86.908676 -19.464870 0.000000 0.000000 0.000000 26.927915 -45.146020 7.774838 -80.483199 -0.431161 8.265080 63.451146 -3.642941 0.985250 10.570597 -6.975901 -12.029877 -14.636185 -1.477404 10.062826 0.000000 0.000000 0.000000 26.176326 -49.093798 8.766031 -45.773527 -21.330614 -16.507666 46.902588 -11.680030 5.695347 -13.999625 -5.849959 28.266835 -7.992026 2.916043 -3.461977 0.000000 0.000000 0.000000 33.440248 -48.755557 12.469134 -0.338842 8.589237 0.052402 -1.396196 3.706133 0.385694 1.592625 -0.350842 0.763491 0.000000 0.000000 0.000000 0.832522 1.222568 1.164482 10.502742 5.106298 -6.423946 -2.148153 18.799763 11.444758 0.000000 0.000000 0.000000 -1.889069 2.137375 0.821126 2.805444 0.756272 -10.338401 1.488869 4.070479 0.944368 -51.581923 -31.023385 -45.617075 0.128513 -70.627735 1.394949 0.000000 0.000000 0.000000 -1.165849 1.571968 1.171293 -13.139550 -2.282358 -1.047162 -9.363234 -0.888748 -2.343718 -107.160054 38.816675 126.179877 -3.529093 21.440900 1.694469 0.000000 0.000000 0.000000 
